STARTFONT 2.1
COMMENT the Lisp Machine name for this font was "25vctl.ast"
FONT vctl-25.bdf
SIZE 24 75 75
FONTBOUNDINGBOX 25 19 0 0
STARTPROPERTIES 3
FONT_DESCENT 6
FONT_ASCENT 19
COPYRIGHT "Public domain font.  Share and enjoy."
ENDPROPERTIES
CHARS 121
STARTCHAR C001
ENCODING 1
SWIDTH 583 0
DWIDTH 14 0
BBX 14 25 0 -6
BITMAP
0600
0600
0600
0600
0600
0600
0600
0600
0600
0600
0600
0600
0600
0600
c630
6660
36c0
1f80
0f00
0600
0000
0000
0000
0000
0000
ENDCHAR
STARTCHAR C002
ENCODING 2
SWIDTH 916 0
DWIDTH 22 0
BBX 22 25 0 -6
BITMAP
000000
000000
000000
000000
000000
000000
000060
0000c0
000180
000180
1c0300
3f0600
61ce00
c07c00
c03c00
c03000
40e000
61d830
3f0e60
1e07c0
000000
000000
000000
000000
000000
ENDCHAR
STARTCHAR C003
ENCODING 3
SWIDTH 833 0
DWIDTH 20 0
BBX 20 25 0 -6
BITMAP
000000
000f00
001980
0031c0
0060c0
00c0c0
01c180
018300
010300
030600
030c00
061e00
060600
0c0700
0c0380
1801c0
1800c0
390180
31c300
30fe00
700000
600000
600000
600000
e00000
ENDCHAR
STARTCHAR C004
ENCODING 4
SWIDTH 708 0
DWIDTH 17 0
BBX 17 25 0 -6
BITMAP
0000
0000
0000
0000
0000
0100
0380
06c0
06c0
0c60
0c60
1830
1830
3018
3018
600c
600c
c006
c006
0000
0000
0000
0000
0000
0000
ENDCHAR
STARTCHAR C005
ENCODING 5
SWIDTH 500 0
DWIDTH 12 0
BBX 12 25 0 -6
BITMAP
0000
0000
0000
0000
0000
0000
0000
0000
0000
0000
ffc0
ffc0
00c0
00c0
00c0
00c0
0000
0000
0000
0000
0000
0000
0000
0000
0000
ENDCHAR
STARTCHAR C006
ENCODING 6
SWIDTH 500 0
DWIDTH 12 0
BBX 12 25 0 -6
BITMAP
0000
0000
0000
0000
0780
0c00
1800
3000
6000
6000
e000
ff80
e000
6000
6000
3000
1800
0c00
0780
0000
0000
0000
0000
0000
0000
ENDCHAR
STARTCHAR C007
ENCODING 7
SWIDTH 666 0
DWIDTH 16 0
BBX 16 25 0 -6
BITMAP
0000
0000
0000
0000
0000
0000
0000
ffc0
fff8
307c
3060
3060
3060
3060
3060
3060
3060
3060
3060
f060
003c
0000
0000
0000
0000
ENDCHAR
STARTCHAR C010
ENCODING 8
SWIDTH 625 0
DWIDTH 15 0
BBX 15 25 0 -6
BITMAP
0000
0000
c000
f000
7800
1800
0c00
0c00
0600
0600
0600
0f00
1b00
3180
3180
60c0
e0c0
c060
8038
0018
0000
0000
0000
0000
0000
ENDCHAR
STARTCHAR C013
ENCODING 11
SWIDTH 583 0
DWIDTH 14 0
BBX 14 25 0 -6
BITMAP
0600
0f00
1f80
36c0
6660
c630
0600
0600
0600
0600
0600
0600
0600
0600
0600
0600
0600
0600
0600
0600
0000
0000
0000
0000
0000
ENDCHAR
STARTCHAR C016
ENCODING 14
SWIDTH 958 0
DWIDTH 23 0
BBX 23 25 0 -6
BITMAP
000000
000000
000000
000000
000000
000000
1e0780
330cc0
619860
c0f030
c06030
c06030
c06030
c06030
c0f030
619860
339cc0
1f0f80
000000
000000
000000
000000
000000
000000
000000
ENDCHAR
STARTCHAR C017
ENCODING 15
SWIDTH 625 0
DWIDTH 15 0
BBX 15 25 0 -6
BITMAP
1c00
0600
0300
0380
0180
00c0
0060
0060
0030
1f30
3ff0
6078
4038
c018
c018
c018
4030
6030
2060
1fc0
0000
0000
0000
0000
0000
ENDCHAR
STARTCHAR C020
ENCODING 16
SWIDTH 708 0
DWIDTH 17 0
BBX 17 25 0 -6
BITMAP
0000
0000
0000
0000
0000
0000
1ffc
3ffc
7000
e000
c000
c000
c000
e000
7000
3ffc
1ffc
0000
0000
0000
0000
0000
0000
0000
0000
ENDCHAR
STARTCHAR C021
ENCODING 17
SWIDTH 708 0
DWIDTH 17 0
BBX 17 25 0 -6
BITMAP
0000
0000
0000
0000
0000
0000
ffe0
fff0
0038
001c
000c
000c
000c
001c
0038
fff0
ffe0
0000
0000
0000
0000
0000
0000
0000
0000
ENDCHAR
STARTCHAR C022
ENCODING 18
SWIDTH 625 0
DWIDTH 15 0
BBX 15 25 0 -6
BITMAP
0000
0000
0000
0000
0000
1f00
3f80
71c0
e0e0
c060
c060
c060
c060
c060
c060
c060
c060
c060
c060
c060
0000
0000
0000
0000
0000
ENDCHAR
STARTCHAR C023
ENCODING 19
SWIDTH 625 0
DWIDTH 15 0
BBX 15 25 0 -6
BITMAP
0000
0000
0000
0000
0000
c060
c060
c060
c060
c060
c060
c060
c060
c060
c060
c060
e0e0
71c0
3f80
1f00
0000
0000
0000
0000
0000
ENDCHAR
STARTCHAR C024
ENCODING 20
SWIDTH 666 0
DWIDTH 16 0
BBX 16 25 0 -6
BITMAP
c00c
c00c
6018
6018
6018
3030
3030
3ff0
1fe0
1860
1860
0cc0
0cc0
0cc0
0780
0780
0780
0300
0300
0300
0000
0000
0000
0000
0000
ENDCHAR
STARTCHAR C025
ENCODING 21
SWIDTH 625 0
DWIDTH 15 0
BBX 15 25 0 -6
BITMAP
fff8
fff8
0018
0018
0018
0018
0018
0018
0018
07f8
07f8
0018
0018
0018
0018
0018
0018
0018
fff8
fff8
0000
0000
0000
0000
0000
ENDCHAR
STARTCHAR C026
ENCODING 22
SWIDTH 666 0
DWIDTH 16 0
BBX 16 25 0 -6
BITMAP
0000
0000
0000
0000
0000
0780
1fe0
2010
7878
4cc8
c78c
c30c
c78c
4cc8
7878
3030
1fe0
0780
0000
0000
0000
0000
0000
0000
0000
ENDCHAR
STARTCHAR C027
ENCODING 23
SWIDTH 750 0
DWIDTH 18 0
BBX 18 25 0 -6
BITMAP
0000
0000
0000
0000
0000
0000
0000
0c30
1818
300c
6006
ffff
ffff
6006
300c
1818
0c30
0000
0000
0000
0000
0000
0000
0000
0000
ENDCHAR
STARTCHAR C030
ENCODING 24
SWIDTH 750 0
DWIDTH 18 0
BBX 18 25 0 -6
BITMAP
0000
0000
0000
0000
0000
0000
0400
0c00
1800
3000
6000
ffff
ffff
6000
3000
1800
0c00
0400
0000
0000
0000
0000
0000
0000
0000
ENDCHAR
STARTCHAR C031
ENCODING 25
SWIDTH 750 0
DWIDTH 18 0
BBX 18 25 0 -6
BITMAP
0000
0000
0000
0000
0000
0000
0020
0030
0018
000c
0006
ffff
ffff
0006
000c
0018
0030
0020
0000
0000
0000
0000
0000
0000
0000
ENDCHAR
STARTCHAR C032
ENCODING 26
SWIDTH 666 0
DWIDTH 16 0
BBX 16 25 0 -6
BITMAP
0000
0000
0030
0030
0060
0060
00c0
00c0
0180
fff0
fff0
0300
0600
fff0
fff0
1800
3000
3000
6000
6000
c000
c000
0000
0000
0000
ENDCHAR
STARTCHAR C033
ENCODING 27
SWIDTH 666 0
DWIDTH 16 0
BBX 16 25 0 -6
BITMAP
0000
0000
0000
0000
0000
0000
0000
0000
1c04
3e04
7f0c
6798
c3f8
81f0
80e0
0000
0000
0000
0000
0000
0000
0000
0000
0000
0000
ENDCHAR
STARTCHAR C034
ENCODING 28
SWIDTH 583 0
DWIDTH 14 0
BBX 14 25 0 -6
BITMAP
0000
0000
0000
0000
0030
00f0
03c0
0f00
3c00
f000
f000
3c00
0f00
03c0
00f0
0030
0000
0000
fff0
fff0
0000
0000
0000
0000
0000
ENDCHAR
STARTCHAR C035
ENCODING 29
SWIDTH 583 0
DWIDTH 14 0
BBX 14 25 0 -6
BITMAP
0000
0000
0000
0000
c000
f000
3c00
0f00
03c0
00f0
00f0
03c0
0f00
3c00
f000
c000
0000
0000
fff0
fff0
0000
0000
0000
0000
0000
ENDCHAR
STARTCHAR C036
ENCODING 30
SWIDTH 500 0
DWIDTH 12 0
BBX 12 25 0 -6
BITMAP
0000
0000
0000
0000
0000
0000
0000
ffc0
ffc0
0000
0000
ffc0
ffc0
0000
0000
ffc0
ffc0
0000
0000
0000
0000
0000
0000
0000
0000
ENDCHAR
STARTCHAR C037
ENCODING 31
SWIDTH 708 0
DWIDTH 17 0
BBX 17 25 0 -6
BITMAP
0000
0000
0000
0000
0000
0000
c006
c006
600c
600c
3018
3018
1830
1830
0c60
0c60
06c0
06c0
0380
0100
0000
0000
0000
0000
0000
ENDCHAR
STARTCHAR C040
ENCODING 32
SWIDTH 416 0
DWIDTH 10 0
BBX 10 25 0 -6
BITMAP
00
00
00
00
00
00
00
00
00
00
00
00
00
00
00
00
00
00
00
00
00
00
00
00
00
ENDCHAR
STARTCHAR !
ENCODING 33
SWIDTH 291 0
DWIDTH 7 0
BBX 7 25 0 -6
BITMAP
00
60
f0
f0
f0
f0
f0
60
60
60
60
60
60
00
00
00
60
f0
f0
60
00
00
00
00
00
ENDCHAR
STARTCHAR "
ENCODING 34
SWIDTH 458 0
DWIDTH 11 0
BBX 11 25 0 -6
BITMAP
e7
e7
e7
e7
e7
e7
42
00
00
00
00
00
00
00
00
00
00
00
00
00
00
00
00
00
00
ENDCHAR
STARTCHAR #
ENCODING 35
SWIDTH 666 0
DWIDTH 16 0
BBX 16 25 0 -6
BITMAP
0000
0000
0000
0000
0000
0000
18c0
18c0
18c0
fff8
fff8
18c0
18c0
18c0
fff8
fff8
18c0
18c0
18c0
0000
0000
0000
0000
0000
0000
ENDCHAR
STARTCHAR $
ENCODING 36
SWIDTH 541 0
DWIDTH 13 0
BBX 13 25 0 -6
BITMAP
0900
0f80
39c0
2940
6960
6960
6960
7900
7d00
3f00
1f80
0bc0
09e0
6960
e920
e960
4960
69c0
3f80
0900
0900
0900
0000
0000
0000
ENDCHAR
STARTCHAR %
ENCODING 37
SWIDTH 625 0
DWIDTH 15 0
BBX 15 25 0 -6
BITMAP
0000
03f8
0630
7c30
8860
8860
88c0
70c0
0180
0180
0300
0300
0600
0600
0c00
0c70
1888
1888
3088
3070
0000
0000
0000
0000
0000
ENDCHAR
STARTCHAR &
ENCODING 38
SWIDTH 791 0
DWIDTH 19 0
BBX 19 25 0 -6
BITMAP
000000
03c000
0ef000
0c7000
183800
1c3000
1c7000
0ee000
0f8000
0f0f80
3f0200
738200
61c200
e1c600
e0e400
e0e400
f07800
f03800
787c00
3fcf00
0e0000
000000
000000
000000
000000
ENDCHAR
STARTCHAR '
ENCODING 39
SWIDTH 291 0
DWIDTH 7 0
BBX 7 25 0 -6
BITMAP
00
f0
f8
d8
08
18
30
60
00
00
00
00
00
00
00
00
00
00
00
00
00
00
00
00
00
ENDCHAR
STARTCHAR (
ENCODING 40
SWIDTH 375 0
DWIDTH 9 0
BBX 9 25 0 -6
BITMAP
04
0c
18
18
30
30
60
60
60
e0
c0
c0
c0
e0
60
60
60
30
30
18
18
0c
04
00
00
ENDCHAR
STARTCHAR )
ENCODING 41
SWIDTH 375 0
DWIDTH 9 0
BBX 9 25 0 -6
BITMAP
00
00
80
c0
60
60
30
30
18
18
18
1c
0c
0c
0c
1c
18
18
18
30
30
60
60
c0
80
ENDCHAR
STARTCHAR *
ENCODING 42
SWIDTH 541 0
DWIDTH 13 0
BBX 13 25 0 -6
BITMAP
0000
0000
0000
0000
0000
0400
0e00
0e00
e4e0
f5e0
3f80
0e00
0e00
3f80
f5e0
e4e0
0e00
0e00
0400
0000
0000
0000
0000
0000
0000
ENDCHAR
STARTCHAR +
ENCODING 43
SWIDTH 625 0
DWIDTH 15 0
BBX 15 25 0 -6
BITMAP
0000
0000
0000
0000
0000
0000
0600
0600
0600
0600
0600
fff0
fff0
0600
0600
0600
0600
0600
0000
0000
0000
0000
0000
0000
0000
ENDCHAR
STARTCHAR ,
ENCODING 44
SWIDTH 250 0
DWIDTH 6 0
BBX 6 25 0 -6
BITMAP
00
00
00
00
00
00
00
00
00
00
00
00
00
00
00
00
60
f0
f0
30
30
70
60
c0
80
ENDCHAR
STARTCHAR -
ENCODING 45
SWIDTH 541 0
DWIDTH 13 0
BBX 13 25 0 -6
BITMAP
0000
0000
0000
0000
0000
0000
0000
0000
0000
0000
0000
ffc0
ffc0
0000
0000
0000
0000
0000
0000
0000
0000
0000
0000
0000
0000
ENDCHAR
STARTCHAR .
ENCODING 46
SWIDTH 250 0
DWIDTH 6 0
BBX 6 25 0 -6
BITMAP
00
00
00
00
00
00
00
00
00
00
00
00
00
00
00
00
00
e0
f0
e0
00
00
00
00
00
ENDCHAR
STARTCHAR /
ENCODING 47
SWIDTH 541 0
DWIDTH 13 0
BBX 13 25 0 -6
BITMAP
00c0
01c0
0180
0180
0380
0300
0300
0700
0600
0600
0e00
0c00
0c00
1c00
1800
1800
3800
3000
3000
7000
6000
6000
e000
c000
c000
ENDCHAR
STARTCHAR 0
ENCODING 48
SWIDTH 666 0
DWIDTH 16 0
BBX 16 25 0 -6
BITMAP
1fe0
3ff0
787c
703c
703c
7078
70f8
71f8
73b8
7738
7e38
7c38
7838
7038
f038
f038
f878
3ff0
1fe0
0000
0000
0000
0000
0000
0000
ENDCHAR
STARTCHAR 1
ENCODING 49
SWIDTH 416 0
DWIDTH 10 0
BBX 10 25 0 -6
BITMAP
0c
3c
fc
dc
1c
1c
1c
1c
1c
1c
1c
1c
1c
1c
1c
1c
1c
7f
7f
00
00
00
00
00
00
ENDCHAR
STARTCHAR 2
ENCODING 50
SWIDTH 541 0
DWIDTH 13 0
BBX 13 25 0 -6
BITMAP
3f80
7fc0
f1e0
e0e0
e0e0
e0e0
00e0
00e0
01e0
03c0
0780
0f00
1e00
3c00
78e0
f0e0
f0e0
ffe0
ffe0
0000
0000
0000
0000
0000
0000
ENDCHAR
STARTCHAR 3
ENCODING 51
SWIDTH 583 0
DWIDTH 14 0
BBX 14 25 0 -6
BITMAP
fff0
fff0
e070
e0f0
e1e0
03c0
0780
0f00
1e00
3fc0
3fe0
00f0
0070
0070
e070
e070
f0f0
7fe0
3fc0
0000
0000
0000
0000
0000
0000
ENDCHAR
STARTCHAR 4
ENCODING 52
SWIDTH 625 0
DWIDTH 15 0
BBX 15 25 0 -6
BITMAP
07e0
07e0
0fe0
0ce0
1ce0
18e0
38e0
30e0
70e0
60e0
e0e0
fff8
fff8
00e0
00e0
00e0
00e0
00e0
00e0
0000
0000
0000
0000
0000
0000
ENDCHAR
STARTCHAR 5
ENCODING 53
SWIDTH 541 0
DWIDTH 13 0
BBX 13 25 0 -6
BITMAP
ffe0
ffe0
e000
e000
e000
e000
e000
ff80
ffc0
01e0
00e0
00e0
00e0
e0e0
e0e0
e0e0
f1e0
7fc0
3f80
0000
0000
0000
0000
0000
0000
ENDCHAR
STARTCHAR 6
ENCODING 54
SWIDTH 583 0
DWIDTH 14 0
BBX 14 25 0 -6
BITMAP
3fc0
7fe0
f0f0
e070
e070
e000
e000
e000
ffc0
ffe0
e0f0
e070
e070
e070
e070
e070
f0f0
7fe0
3fc0
0000
0000
0000
0000
0000
0000
ENDCHAR
STARTCHAR 7
ENCODING 55
SWIDTH 583 0
DWIDTH 14 0
BBX 14 25 0 -6
BITMAP
fff0
fff0
e070
e060
e0e0
00c0
01c0
0180
0380
0300
0700
0600
0e00
0c00
1c00
1800
3800
3000
3000
0000
0000
0000
0000
0000
0000
ENDCHAR
STARTCHAR 8
ENCODING 56
SWIDTH 541 0
DWIDTH 13 0
BBX 13 25 0 -6
BITMAP
3f80
7fc0
f1e0
e0e0
e0e0
e0e0
e0e0
f1e0
7fc0
3f80
71c0
e0e0
e0e0
e0e0
e0e0
e0e0
f1e0
7fc0
3f80
0000
0000
0000
0000
0000
0000
ENDCHAR
STARTCHAR 9
ENCODING 57
SWIDTH 541 0
DWIDTH 13 0
BBX 13 25 0 -6
BITMAP
3f80
7fc0
f1e0
e0e0
e0e0
e0e0
e0e0
f1e0
7fe0
3fe0
00e0
00e0
00e0
00e0
e0e0
e0e0
f1e0
7fc0
3f80
0000
0000
0000
0000
0000
0000
ENDCHAR
STARTCHAR :
ENCODING 58
SWIDTH 291 0
DWIDTH 7 0
BBX 7 25 0 -6
BITMAP
00
00
00
00
00
00
00
00
60
f0
f0
60
00
00
00
00
60
f0
f0
60
00
00
00
00
00
ENDCHAR
STARTCHAR ;
ENCODING 59
SWIDTH 250 0
DWIDTH 6 0
BBX 6 25 0 -6
BITMAP
00
00
00
00
00
00
00
00
60
f0
f0
60
00
00
00
60
f0
f0
30
30
70
60
c0
80
00
ENDCHAR
STARTCHAR <
ENCODING 60
SWIDTH 583 0
DWIDTH 14 0
BBX 14 25 0 -6
BITMAP
0000
0000
0000
0000
0030
00f0
03c0
0f00
3c00
f000
f000
3c00
0f00
03c0
00f0
0030
0000
0000
0000
0000
0000
0000
0000
0000
0000
ENDCHAR
STARTCHAR =
ENCODING 61
SWIDTH 666 0
DWIDTH 16 0
BBX 16 25 0 -6
BITMAP
0000
0000
0000
0000
0000
0000
0000
0000
0000
fff8
fff8
0000
0000
fff8
fff8
0000
0000
0000
0000
0000
0000
0000
0000
0000
0000
ENDCHAR
STARTCHAR >
ENCODING 62
SWIDTH 583 0
DWIDTH 14 0
BBX 14 25 0 -6
BITMAP
0000
0000
0000
0000
c000
f000
3c00
0f00
03c0
00f0
00f0
03c0
0f00
3c00
f000
c000
0000
0000
0000
0000
0000
0000
0000
0000
0000
ENDCHAR
STARTCHAR ?
ENCODING 63
SWIDTH 458 0
DWIDTH 11 0
BBX 11 25 0 -6
BITMAP
0000
3e00
6700
c100
e180
e380
4380
0780
0f00
1e00
1c00
1800
1000
1000
1000
0000
0000
1800
3c00
1800
0000
0000
0000
0000
0000
ENDCHAR
STARTCHAR @
ENCODING 64
SWIDTH 833 0
DWIDTH 20 0
BBX 20 25 0 -6
BITMAP
000000
000000
000000
000000
000000
0ffc00
1ffe00
300f00
600300
47c180
cfe180
9c7180
983180
983180
983180
983300
9c7f00
8ffe00
c00000
600000
3fff80
000000
000000
000000
000000
ENDCHAR
STARTCHAR A
ENCODING 65
SWIDTH 708 0
DWIDTH 17 0
BBX 17 25 0 -6
BITMAP
0380
07c0
07c0
06c0
06c0
0ee0
0c60
0c60
0c60
1ff0
1ff0
1830
1830
3838
3838
3018
3018
f01e
f01e
0000
0000
0000
0000
0000
0000
ENDCHAR
STARTCHAR B
ENCODING 66
SWIDTH 666 0
DWIDTH 16 0
BBX 16 25 0 -6
BITMAP
fff0
fff8
383c
381c
381c
381c
381c
3838
3ff0
3ff0
3838
381c
381c
381c
381c
381c
383c
fff8
fff0
0000
0000
0000
0000
0000
0000
ENDCHAR
STARTCHAR C
ENCODING 67
SWIDTH 583 0
DWIDTH 14 0
BBX 14 25 0 -6
BITMAP
3ff0
7ff0
f070
e070
e070
e070
e000
e000
e000
e000
e000
e000
e000
e070
e070
e070
f070
7ff0
3ff0
0000
0000
0000
0000
0000
0000
ENDCHAR
STARTCHAR D
ENCODING 68
SWIDTH 666 0
DWIDTH 16 0
BBX 16 25 0 -6
BITMAP
fff0
fff8
383c
381c
381c
381c
381c
381c
381c
381c
381c
381c
381c
381c
381c
381c
383c
fff8
fff0
0000
0000
0000
0000
0000
0000
ENDCHAR
STARTCHAR E
ENCODING 69
SWIDTH 625 0
DWIDTH 15 0
BBX 15 25 0 -6
BITMAP
fff8
fff8
3838
3838
3838
3838
3800
3800
3fe0
3fe0
3800
3800
3800
3838
3838
3838
3838
fff8
fff8
0000
0000
0000
0000
0000
0000
ENDCHAR
STARTCHAR F
ENCODING 70
SWIDTH 583 0
DWIDTH 14 0
BBX 14 25 0 -6
BITMAP
fff0
fff0
3870
3870
3870
3870
3800
3800
3fe0
3fe0
3800
3800
3800
3800
3800
3800
3800
fe00
fe00
0000
0000
0000
0000
0000
0000
ENDCHAR
STARTCHAR G
ENCODING 71
SWIDTH 583 0
DWIDTH 14 0
BBX 14 25 0 -6
BITMAP
3ff0
7ff0
f070
e070
e070
e070
e000
e000
e3f0
e3f0
e070
e070
e070
e070
e070
e070
f070
7ff0
3ff0
0000
0000
0000
0000
0000
0000
ENDCHAR
STARTCHAR H
ENCODING 72
SWIDTH 750 0
DWIDTH 18 0
BBX 18 25 0 -6
BITMAP
f81f
f81f
381c
381c
381c
381c
381c
381c
3ffc
3ffc
381c
381c
381c
381c
381c
381c
381c
f81f
f81f
0000
0000
0000
0000
0000
0000
ENDCHAR
STARTCHAR I
ENCODING 73
SWIDTH 375 0
DWIDTH 9 0
BBX 9 25 0 -6
BITMAP
fe
fe
38
38
38
38
38
38
38
38
38
38
38
38
38
38
38
fe
fe
00
00
00
00
00
00
ENDCHAR
STARTCHAR J
ENCODING 74
SWIDTH 541 0
DWIDTH 13 0
BBX 13 25 0 -6
BITMAP
0fe0
0fe0
0380
0380
0380
0380
0380
0380
0380
0380
0380
0380
0380
0380
0380
0380
e780
ff00
7e00
0000
0000
0000
0000
0000
0000
ENDCHAR
STARTCHAR K
ENCODING 75
SWIDTH 708 0
DWIDTH 17 0
BBX 17 25 0 -6
BITMAP
f83c
f83c
3870
3870
38e0
38e0
39c0
39c0
3fe0
3ff0
3ff8
3878
3838
3838
3838
3838
3838
f83e
f83e
0000
0000
0000
0000
0000
0000
ENDCHAR
STARTCHAR L
ENCODING 76
SWIDTH 583 0
DWIDTH 14 0
BBX 14 25 0 -6
BITMAP
fe00
fe00
3800
3800
3800
3800
3800
3800
3800
3800
3800
3800
3800
3870
3870
3870
3870
fff0
fff0
0000
0000
0000
0000
0000
0000
ENDCHAR
STARTCHAR M
ENCODING 77
SWIDTH 916 0
DWIDTH 22 0
BBX 22 25 0 -6
BITMAP
f801f0
fc03f0
3c03c0
3e07c0
3e07c0
3f0fc0
3b0dc0
3b9dc0
3999c0
39f9c0
38f1c0
38f1c0
3861c0
3861c0
3801c0
3801c0
3801c0
f801f0
f801f0
000000
000000
000000
000000
000000
000000
ENDCHAR
STARTCHAR N
ENCODING 78
SWIDTH 791 0
DWIDTH 19 0
BBX 19 25 0 -6
BITMAP
f80f80
fc0f80
3c0e00
3e0e00
3e0e00
3f0e00
3b0e00
3b8e00
398e00
39ce00
38ce00
38ee00
386e00
387e00
383e00
383e00
381e00
f81e00
f80e00
000000
000000
000000
000000
000000
000000
ENDCHAR
STARTCHAR O
ENCODING 79
SWIDTH 583 0
DWIDTH 14 0
BBX 14 25 0 -6
BITMAP
3fc0
7fe0
f0f0
e070
e070
e070
e070
e070
e070
e070
e070
e070
e070
e070
e070
e070
f0f0
7fe0
3fc0
0000
0000
0000
0000
0000
0000
ENDCHAR
STARTCHAR P
ENCODING 80
SWIDTH 625 0
DWIDTH 15 0
BBX 15 25 0 -6
BITMAP
ffe0
fff0
3878
3838
3838
3838
3838
3878
3ff0
3fe0
3800
3800
3800
3800
3800
3800
3800
fe00
fe00
0000
0000
0000
0000
0000
0000
ENDCHAR
STARTCHAR Q
ENCODING 81
SWIDTH 666 0
DWIDTH 16 0
BBX 16 25 0 -6
BITMAP
3fc0
7fe0
f0f0
e070
e070
e070
e070
e070
e070
e070
e070
e070
e070
e370
e3f0
e1f0
f0f8
7ffc
3fcc
0000
0000
0000
0000
0000
0000
ENDCHAR
STARTCHAR R
ENCODING 82
SWIDTH 750 0
DWIDTH 18 0
BBX 18 25 0 -6
BITMAP
ffe0
fff0
3878
3838
3838
3838
3838
3878
3ff0
3ff0
3838
381c
381c
381c
381c
381c
381c
f81f
f81f
0000
0000
0000
0000
0000
0000
ENDCHAR
STARTCHAR S
ENCODING 83
SWIDTH 583 0
DWIDTH 14 0
BBX 14 25 0 -6
BITMAP
3ff0
7ff0
f070
e070
e070
e000
e000
f000
7fc0
3fe0
00f0
0070
0070
0070
e070
e070
e0f0
ffe0
ffc0
0000
0000
0000
0000
0000
0000
ENDCHAR
STARTCHAR T
ENCODING 84
SWIDTH 708 0
DWIDTH 17 0
BBX 17 25 0 -6
BITMAP
fffe
fffe
e38e
e38e
e38e
0380
0380
0380
0380
0380
0380
0380
0380
0380
0380
0380
0380
0fe0
0fe0
0000
0000
0000
0000
0000
0000
ENDCHAR
STARTCHAR U
ENCODING 85
SWIDTH 750 0
DWIDTH 18 0
BBX 18 25 0 -6
BITMAP
f81f
f81f
381c
381c
381c
381c
381c
381c
381c
381c
381c
381c
381c
381c
381c
381c
3c3c
1ff8
0ff0
0000
0000
0000
0000
0000
0000
ENDCHAR
STARTCHAR V
ENCODING 86
SWIDTH 708 0
DWIDTH 17 0
BBX 17 25 0 -6
BITMAP
f01e
f01e
3838
3838
1830
1830
1c70
1c70
0c60
0c60
0ee0
0ee0
06c0
06c0
07c0
07c0
0380
0380
0380
0000
0000
0000
0000
0000
0000
ENDCHAR
STARTCHAR W
ENCODING 87
SWIDTH 1041 0
DWIDTH 25 0
BBX 25 25 0 -6
BITMAP
f07c1e
f07c1e
306c18
306c18
38ee38
38ee38
18c630
18c630
1dc770
1dc770
0d8360
0d8360
0f83e0
0f83e0
0701c0
0701c0
0701c0
0701c0
0701c0
000000
000000
000000
000000
000000
000000
ENDCHAR
STARTCHAR X
ENCODING 88
SWIDTH 666 0
DWIDTH 16 0
BBX 16 25 0 -6
BITMAP
f03c
f03c
3030
3870
3870
1860
1ce0
1ce0
0fc0
0fc0
0fc0
1ce0
1ce0
1860
3870
3870
3030
f03c
f03c
0000
0000
0000
0000
0000
0000
ENDCHAR
STARTCHAR Y
ENCODING 89
SWIDTH 708 0
DWIDTH 17 0
BBX 17 25 0 -6
BITMAP
f01c
f01c
3838
3838
1c70
1c70
0ee0
0ee0
07c0
07c0
0380
0380
0380
0380
0380
0380
0380
0fe0
0fe0
0000
0000
0000
0000
0000
0000
ENDCHAR
STARTCHAR Z
ENCODING 90
SWIDTH 625 0
DWIDTH 15 0
BBX 15 25 0 -6
BITMAP
fff8
fff8
e0f0
e0e0
e1c0
e1c0
0380
0380
0700
0700
0e00
0e00
1c00
1c00
3838
3838
7838
fff8
fff8
0000
0000
0000
0000
0000
0000
ENDCHAR
STARTCHAR [
ENCODING 91
SWIDTH 416 0
DWIDTH 10 0
BBX 10 25 0 -6
BITMAP
fe
fe
c0
c0
c0
c0
c0
c0
c0
c0
c0
c0
c0
c0
c0
c0
c0
c0
c0
c0
c0
c0
c0
fe
fe
ENDCHAR
STARTCHAR \
ENCODING 92
SWIDTH 541 0
DWIDTH 13 0
BBX 13 25 0 -6
BITMAP
c000
e000
6000
6000
7000
3000
3000
3800
1800
1800
1c00
0c00
0c00
0e00
0600
0600
0700
0300
0300
0380
0180
0180
01c0
00c0
00c0
ENDCHAR
STARTCHAR ]
ENCODING 93
SWIDTH 416 0
DWIDTH 10 0
BBX 10 25 0 -6
BITMAP
fe
fe
06
06
06
06
06
06
06
06
06
06
06
06
06
06
06
06
06
06
06
06
06
fe
fe
ENDCHAR
STARTCHAR _
ENCODING 95
SWIDTH 666 0
DWIDTH 16 0
BBX 16 25 0 -6
BITMAP
0000
0000
0000
0000
0000
0000
0000
0000
0000
0000
0000
0000
0000
0000
0000
0000
0000
0000
0000
0000
0000
ffff
ffff
0000
0000
ENDCHAR
STARTCHAR `
ENCODING 96
SWIDTH 291 0
DWIDTH 7 0
BBX 7 25 0 -6
BITMAP
00
70
f8
f0
80
c0
60
30
18
00
00
00
00
00
00
00
00
00
00
00
00
00
00
00
00
ENDCHAR
STARTCHAR a
ENCODING 97
SWIDTH 541 0
DWIDTH 13 0
BBX 13 25 0 -6
BITMAP
0000
0000
0000
0000
0000
0000
0000
7f80
ffc0
e1c0
01c0
01c0
7fc0
ffc0
e1c0
e1c0
e1c0
ffe0
7fe0
0000
0000
0000
0000
0000
0000
ENDCHAR
STARTCHAR b
ENCODING 98
SWIDTH 541 0
DWIDTH 13 0
BBX 13 25 0 -6
BITMAP
f000
f000
7000
7000
7000
7000
7000
7fc0
7fe0
70e0
70e0
70e0
70e0
70e0
70e0
70e0
70e0
7fe0
7fc0
0000
0000
0000
0000
0000
0000
ENDCHAR
STARTCHAR c
ENCODING 99
SWIDTH 458 0
DWIDTH 11 0
BBX 11 25 0 -6
BITMAP
0000
0000
0000
0000
0000
0000
0000
7f80
ff80
e380
e000
e000
e000
e000
e000
e000
e380
ff80
7f80
0000
0000
0000
0000
0000
0000
ENDCHAR
STARTCHAR d
ENCODING 100
SWIDTH 541 0
DWIDTH 13 0
BBX 13 25 0 -6
BITMAP
03c0
03c0
01c0
01c0
01c0
01c0
01c0
7fc0
ffc0
e1c0
e1c0
e1c0
e1c0
e1c0
e1c0
e1c0
e1c0
ffe0
7fe0
0000
0000
0000
0000
0000
0000
ENDCHAR
STARTCHAR e
ENCODING 101
SWIDTH 500 0
DWIDTH 12 0
BBX 12 25 0 -6
BITMAP
0000
0000
0000
0000
0000
0000
0000
7f80
ffc0
e1c0
e1c0
ffc0
ffc0
e000
e000
e000
e1c0
ffc0
7f80
0000
0000
0000
0000
0000
0000
ENDCHAR
STARTCHAR f
ENCODING 102
SWIDTH 375 0
DWIDTH 9 0
BBX 9 25 0 -6
BITMAP
1e
3e
38
38
38
38
38
fe
fe
38
38
38
38
38
38
38
38
7c
7c
00
00
00
00
00
00
ENDCHAR
STARTCHAR g
ENCODING 103
SWIDTH 541 0
DWIDTH 13 0
BBX 13 25 0 -6
BITMAP
0000
0000
0000
0000
0000
0000
0000
7fe0
ffe0
e1c0
e1c0
e1c0
e1c0
e1c0
e1c0
e1c0
e1c0
ffc0
7fc0
01c0
01c0
e1c0
ffc0
7f80
0000
ENDCHAR
STARTCHAR h
ENCODING 104
SWIDTH 541 0
DWIDTH 13 0
BBX 13 25 0 -6
BITMAP
f000
f000
7000
7000
7000
7000
7000
7fc0
7fe0
70e0
70e0
70e0
70e0
70e0
70e0
70e0
70e0
f8f0
f8f0
0000
0000
0000
0000
0000
0000
ENDCHAR
STARTCHAR i
ENCODING 105
SWIDTH 291 0
DWIDTH 7 0
BBX 7 25 0 -6
BITMAP
00
70
70
70
00
00
00
f0
f0
70
70
70
70
70
70
70
70
f8
f8
00
00
00
00
00
00
ENDCHAR
STARTCHAR j
ENCODING 106
SWIDTH 291 0
DWIDTH 7 0
BBX 7 25 0 -6
BITMAP
00
38
38
38
00
00
00
78
78
38
38
38
38
38
38
38
38
38
38
38
38
38
f8
f0
00
ENDCHAR
STARTCHAR k
ENCODING 107
SWIDTH 583 0
DWIDTH 14 0
BBX 14 25 0 -6
BITMAP
f000
f000
7000
7000
7000
7000
7000
71e0
73e0
7780
7f00
7e00
7e00
7e00
7f00
7780
73c0
f1f0
f0f0
0000
0000
0000
0000
0000
0000
ENDCHAR
STARTCHAR l
ENCODING 108
SWIDTH 291 0
DWIDTH 7 0
BBX 7 25 0 -6
BITMAP
f0
f0
70
70
70
70
70
70
70
70
70
70
70
70
70
70
70
f8
f8
00
00
00
00
00
00
ENDCHAR
STARTCHAR m
ENCODING 109
SWIDTH 875 0
DWIDTH 21 0
BBX 21 25 0 -6
BITMAP
000000
000000
000000
000000
000000
000000
000000
ffff80
ffffc0
70e1c0
70e1c0
70e1c0
70e1c0
70e1c0
70e1c0
70e1c0
70e1c0
f8f1e0
f8f1e0
000000
000000
000000
000000
000000
000000
ENDCHAR
STARTCHAR n
ENCODING 110
SWIDTH 583 0
DWIDTH 14 0
BBX 14 25 0 -6
BITMAP
0000
0000
0000
0000
0000
0000
0000
ffc0
ffe0
70e0
70e0
70e0
70e0
70e0
70e0
70e0
70e0
f8f0
f8f0
0000
0000
0000
0000
0000
0000
ENDCHAR
STARTCHAR o
ENCODING 111
SWIDTH 500 0
DWIDTH 12 0
BBX 12 25 0 -6
BITMAP
0000
0000
0000
0000
0000
0000
0000
7f80
ffc0
e1c0
e1c0
e1c0
e1c0
e1c0
e1c0
e1c0
e1c0
ffc0
7f80
0000
0000
0000
0000
0000
0000
ENDCHAR
STARTCHAR p
ENCODING 112
SWIDTH 541 0
DWIDTH 13 0
BBX 13 25 0 -6
BITMAP
0000
0000
0000
0000
0000
0000
0000
ffc0
ffe0
70e0
70e0
70e0
70e0
70e0
70e0
70e0
70e0
7fe0
7fc0
7000
7000
7000
7000
7000
0000
ENDCHAR
STARTCHAR q
ENCODING 113
SWIDTH 541 0
DWIDTH 13 0
BBX 13 25 0 -6
BITMAP
0000
0000
0000
0000
0000
0000
0000
7fe0
ffe0
e1c0
e1c0
e1c0
e1c0
e1c0
e1c0
e1c0
e1c0
ffc0
7fc0
01c0
01c0
01c0
01c0
01c0
0000
ENDCHAR
STARTCHAR r
ENCODING 114
SWIDTH 500 0
DWIDTH 12 0
BBX 12 25 0 -6
BITMAP
0000
0000
0000
0000
0000
0000
0000
ff80
ffc0
71c0
71c0
7000
7000
7000
7000
7000
7000
f800
f800
0000
0000
0000
0000
0000
0000
ENDCHAR
STARTCHAR s
ENCODING 115
SWIDTH 458 0
DWIDTH 11 0
BBX 11 25 0 -6
BITMAP
0000
0000
0000
0000
0000
0000
0000
7f80
ff80
e380
e000
e000
ff00
7f80
0380
0380
e380
ff80
ff00
0000
0000
0000
0000
0000
0000
ENDCHAR
STARTCHAR t
ENCODING 116
SWIDTH 375 0
DWIDTH 9 0
BBX 9 25 0 -6
BITMAP
00
00
00
38
38
38
38
fe
fe
38
38
38
38
38
38
38
38
3c
1c
00
00
00
00
00
00
ENDCHAR
STARTCHAR u
ENCODING 117
SWIDTH 583 0
DWIDTH 14 0
BBX 14 25 0 -6
BITMAP
0000
0000
0000
0000
0000
0000
0000
f1e0
f1e0
70e0
70e0
70e0
70e0
70e0
70e0
70e0
70e0
7ff0
3ff0
0000
0000
0000
0000
0000
0000
ENDCHAR
STARTCHAR v
ENCODING 118
SWIDTH 625 0
DWIDTH 15 0
BBX 15 25 0 -6
BITMAP
0000
0000
0000
0000
0000
0000
0000
f078
f078
3060
38e0
38e0
18c0
1dc0
1dc0
0d80
0f80
0f80
0700
0000
0000
0000
0000
0000
0000
ENDCHAR
STARTCHAR w
ENCODING 119
SWIDTH 875 0
DWIDTH 21 0
BBX 21 25 0 -6
BITMAP
000000
000000
000000
000000
000000
000000
000000
f0e1e0
f1f1e0
31b180
31b180
3bbb80
3bbb80
1b1b00
1b1b00
1f1f00
1f1f00
0e0e00
0e0e00
000000
000000
000000
000000
000000
000000
ENDCHAR
STARTCHAR x
ENCODING 120
SWIDTH 625 0
DWIDTH 15 0
BBX 15 25 0 -6
BITMAP
0000
0000
0000
0000
0000
0000
0000
f078
f8f8
3de0
1fc0
0f80
0700
0700
0f80
1fc0
3de0
f8f8
f078
0000
0000
0000
0000
0000
0000
ENDCHAR
STARTCHAR y
ENCODING 121
SWIDTH 625 0
DWIDTH 15 0
BBX 15 25 0 -6
BITMAP
0000
0000
0000
0000
0000
0000
0000
f078
f078
3060
38e0
18c0
1dc0
0d80
0f80
0700
0700
0e00
0e00
1c00
1c00
3800
3800
7000
0000
ENDCHAR
STARTCHAR z
ENCODING 122
SWIDTH 500 0
DWIDTH 12 0
BBX 12 25 0 -6
BITMAP
0000
0000
0000
0000
0000
0000
0000
ffc0
ffc0
e1c0
03c0
0780
0f00
1e00
3c00
7800
f1c0
ffc0
ffc0
0000
0000
0000
0000
0000
0000
ENDCHAR
STARTCHAR {
ENCODING 123
SWIDTH 458 0
DWIDTH 11 0
BBX 11 25 0 -6
BITMAP
0f
1c
38
30
30
38
38
18
18
10
20
60
e0
60
20
10
18
18
38
38
30
30
38
1c
0f
ENDCHAR
STARTCHAR |
ENCODING 124
SWIDTH 291 0
DWIDTH 7 0
BBX 7 25 0 -6
BITMAP
c0
c0
c0
c0
c0
c0
c0
c0
c0
c0
c0
c0
c0
c0
c0
c0
c0
c0
c0
c0
c0
c0
c0
c0
c0
ENDCHAR
STARTCHAR }
ENCODING 125
SWIDTH 458 0
DWIDTH 11 0
BBX 11 25 0 -6
BITMAP
f0
38
1c
0c
0c
1c
1c
18
18
08
04
06
07
06
04
08
18
18
1c
1c
0c
0c
1c
38
f0
ENDCHAR
STARTCHAR ~
ENCODING 126
SWIDTH 666 0
DWIDTH 16 0
BBX 16 25 0 -6
BITMAP
0000
0000
0000
0000
0000
0000
0000
0000
1c04
3e04
7f0c
6798
c3f8
81f0
80e0
0000
0000
0000
0000
0000
0000
0000
0000
0000
0000
ENDCHAR
ENDFONT
